# xmcd CD database file
#
# Track frame offsets:
#	150
#	18117
#	32640
#	45514
#	59622
#	74165
#	86330
#	104492
#	124585
#	151700
#	156877
#	177107
#	187627
#	202352
#
# Disc length: 2989 seconds
#
# Revision: 2
# Processed by: cddbd v1.4b41PL1 Copyright (c) Steve Scherf et al.
# Submitted via: Feurio! 1.50.2ß - http://www.feurio.com
#
DISCID=b30bab0e
DTITLE=STEVE MILLER BAND - greatest hits  1974-78
DYEAR=1900
DGENRE=
TTITLE0=swingtown
TTITLE1=jungle love
TTITLE2=take my money and run
TTITLE3=rock'n me
TTITLE4=serenade
TTITLE5=true fine love
TTITLE6=the stake 
TTITLE7=the joker
TTITLE8=fly like an eagle
TTITLE9=threshold
TTITLE10=jet airliner
TTITLE11=dance dance dance
TTITLE12=winter time
TTITLE13=wild mountain honey
EXTD=
EXTT0=
EXTT1=
EXTT2=
EXTT3=
EXTT4=
EXTT5=
EXTT6=
EXTT7=
EXTT8=
EXTT9=
EXTT10=
EXTT11=
EXTT12=
EXTT13=
PLAYORDER=
